<!--?xml version="1.0" standalone="no"?-->
              <svg id="sw-js-blob-svg" viewBox="0 0 100 100" xmlns="http://www.w3.org/2000/svg" version="1.1">
                    <defs> 
                        <linearGradient id="sw-gradient" x1="0" x2="1" y1="1" y2="0">
                            <stop id="stop1" stop-color="rgba(248, 117, 55, 1)" offset="0%"></stop>
                            <stop id="stop2" stop-color="rgba(251, 168, 31, 1)" offset="100%"></stop>
                        </linearGradient>
                    </defs>
                <path fill="url(#sw-gradient)" d="M22.1,-26.3C29.6,-20,37.3,-14,40.2,-5.9C43.1,2.2,41.1,12.4,36.1,20.8C31.2,29.1,23.3,35.6,13.9,39.6C4.6,43.6,-6.1,45,-13.3,40.6C-20.5,36.2,-24.1,26.1,-28.6,17.1C-33.1,8.1,-38.5,0.2,-37.9,-7.3C-37.3,-14.7,-30.7,-21.7,-23.4,-28C-16,-34.4,-8,-40.1,-0.4,-39.6C7.3,-39.2,14.6,-32.6,22.1,-26.3Z" width="100%" height="100%" transform="translate(50 50)" stroke-width="0" style="transition: all 0.3s ease 0s;"></path>
              </svg>